<?xml version="1.0" encoding="utf-8"?>
<!-- Generator: Adobe Illustrator 23.0.0, SVG Export Plug-In . SVG Version: 6.00 Build 0)  -->
<svg version="1.1" id="Camada_1" xmlns="http://www.w3.org/2000/svg" xmlns:xlink="http://www.w3.org/1999/xlink" x="0px" y="0px"
	 viewBox="0 0 1366 768" style="enable-background:new 0 0 1366 768;" xml:space="preserve">
<style type="text/css">
	.st0{fill:#FFFFFF;stroke:#000000;stroke-miterlimit:10;}
	.st1{fill:#FC772E;}
	.st2{fill:#F9F2F2;stroke:url(#SVGID_1_);stroke-miterlimit:10;}
	.st3{fill:#BA178D;}
	.st4{fill:#F9F2F2;stroke:url(#SVGID_2_);stroke-miterlimit:10;}
	.st5{fill:#FC772E;stroke:#BC00D0;stroke-miterlimit:10;}
	.st6{fill:#BD158F;stroke:url(#SVGID_3_);stroke-miterlimit:10;}
	.st7{fill:none;}
</style>
<path class="st0" d="M820.46,162.35"/>
<path class="st0" d="M823.51,139.48"/>
<path class="st1" d="M784.43,215.15c6.95,6.52,23.29-0.91,38.22-7.7c15.36-6.98,23.05-10.48,28.87-17.86
	c15.35-19.46,8.13-44.04,7.43-46.31c-1.64-5.28-3.38-10.86-8.13-12.97c-10.85-4.82-28.33,13.45-30.62,17.74
	c-0.57,1.08-1.27,2.17-2.67,4.35c-1.77,2.77-2.19,3.2-2.81,3.52c-1.56,0.8-2.51-0.02-5.33,0.31c-0.83,0.1-1.65,0.28-4.1,1.16
	c-6.34,2.3-9.51,3.46-11.42,5.92c-0.83,1.07-2.19,2.82-1.76,4.62c0.47,1.97,2.63,2.07,3.81,4.48c0.72,1.47,1.1,3.83,0.14,5.57
	c-1.84,3.31-7.15,1.82-8.41,4.73c-0.88,2.03,1.26,4.73,1.56,5.1c5.09,6.44,17.44,3.61,17.76,5.43c0.12,0.66-1.37,1.89-8.9,4.39
	c-2.61-0.97-5.22-1.94-7.84-2.9c-3.88-0.57-5.97-0.87-5.97-0.87c0,0-2.5,4.27-3.1,5.51C778.96,203.93,780.84,211.78,784.43,215.15z"
	/>
<linearGradient id="SVGID_1_" gradientUnits="userSpaceOnUse" x1="824.1979" y1="160.8683" x2="843.9115" y2="160.8683">
	<stop  offset="0.0106" style="stop-color:#FC772E"/>
	<stop  offset="1" style="stop-color:#BD158F"/>
</linearGradient>
<path class="st2" d="M840.95,170.17c-1.41,0.29-2-4.38-7.33-9.17c-4.92-4.43-9.07-4.61-8.93-6.09c0.22-2.19,9.71-5.63,15.1-1.27
	C845.71,158.44,843.07,169.74,840.95,170.17z"/>
<path class="st3" d="M655.99,199.2c-8.01,3.89-20.53-7.28-31.96-17.49c-11.77-10.5-17.65-15.75-20.8-23.96
	c-8.29-21.63,4.98-41.56,6.24-43.38c2.93-4.25,6.03-8.75,10.86-9.31c11.02-1.28,21.54,19.87,22.38,24.34
	c0.21,1.12,0.53,2.29,1.17,4.62c0.81,2.97,1.07,3.46,1.53,3.92c1.17,1.15,2.24,0.68,4.67,1.75c0.71,0.32,1.4,0.71,3.33,2.18
	c5.02,3.82,7.52,5.73,8.55,8.45c0.44,1.18,1.17,3.12,0.28,4.61c-0.97,1.63-2.92,1.11-4.65,2.94c-1.05,1.11-2.05,3.11-1.67,4.93
	c0.8,3.81,6.38,4.55,6.19,6.56c-0.17,1.84-5,1.64-11.11,5.86c-3.01,2.08-3.86,3.52-4.23,4.27c-1.72,3.49-1.03,8.08,0.31,8.42
	c0.49,0.12,1.67-0.16,4.24-5.16c2.26-1.21,4.52-2.41,6.78-3.62c1.3,0.37,2.61,0.74,3.91,1.11c0,0,1.05,4.51,1.24,5.77
	C663.99,190.7,660.13,197.19,655.99,199.2z"/>
<linearGradient id="SVGID_2_" gradientUnits="userSpaceOnUse" x1="622.0765" y1="143.5272" x2="641.4279" y2="143.5272">
	<stop  offset="0.0106" style="stop-color:#FC772E"/>
	<stop  offset="1" style="stop-color:#BD158F"/>
</linearGradient>
<path class="st4" d="M622.6,143.35c0.35-1.16,4.02,0.28,9.68-1.71c5.23-1.85,7.03-4.82,8.05-4.13c1.52,1.03,0.25,9.4-5.11,11.61
	C629.33,151.54,622.08,145.08,622.6,143.35z"/>
<path class="st5" d="M617.81,329.88c2.12-7.32,4.74-14.69,9.53-20.61c4.51-5.57,10.68-9.51,16.73-13.35
	c9.06-5.75,18.12-11.5,27.18-17.25c10.77-6.84,21.84-13.95,29.1-24.44c14.97-21.62,9.91-50.59,6.62-76.68
	c-0.97-7.66-1.71-15.52,0.05-23.04c2.7-11.5,10.92-20.81,19.16-29.27c11.73-12.06,25.67-24.18,42.49-24.84
	c2.49,4.96-0.21,10.83-2.76,15.76c-14.37,27.74-25.27,61.21-12.21,89.6c6.89,14.97,19.79,26.53,34.2,34.52
	c14.41,7.99,30.36,12.72,46.26,17.03c6.99,1.89,14.17,3.73,21.37,3.03c18.44-1.8,31.06-19.01,47.37-27.81
	c0.1,6.24-2.28,12.21-4.61,17.99c-8.32,20.59-19.58,43.81-41.19,48.93c-8.89,2.11-18.16,0.66-27.27,0.04
	c-13.03-0.89-26.17-0.07-38.98,2.43c-10.34,2.02-21.41,5.84-26.75,14.92c-4.79,8.15-3.61,18.73,0.57,27.21s10.96,15.35,17.51,22.17
	c18.61,19.37,36.79,40.54,44.28,66.34c0.52,1.8,0.98,3.76,0.31,5.5c-0.69,1.78-2.41,2.94-4.15,3.72c-7.9,3.58-17.41,1.54-24.82-2.98
	s-13.16-11.22-18.98-17.65c-16.31-18.04-34.02-34.85-53.31-49.66c-14.69-11.29-32.77-21.91-50.75-17.43
	c-11.11,2.77-19.26,10.71-26.42,19.2c-5.3,6.29-14.13,24.75-22.1,27.23C603.19,407.69,614.93,339.81,617.81,329.88z"/>
<linearGradient id="SVGID_3_" gradientUnits="userSpaceOnUse" x1="462.3931" y1="285.2876" x2="758.2299" y2="285.2876">
	<stop  offset="0.0106" style="stop-color:#FC772E"/>
	<stop  offset="1" style="stop-color:#BD158F"/>
</linearGradient>
<path class="st6" d="M686.63,397.53c3.76-6.63,7.22-13.64,8.11-21.21c0.84-7.12-0.64-14.29-2.11-21.3c-2.2-10.5-4.4-21.01-6.6-31.51
	c-2.62-12.49-5.24-25.38-2.79-37.9c5.04-25.81,29.33-42.4,50.32-58.24c6.16-4.65,12.32-9.6,16.47-16.11
	c6.35-9.96,7.29-22.34,7.61-34.15c0.45-16.82-0.58-35.26-11.84-47.77c-5.29,1.68-7.62,7.71-9.37,12.98
	c-9.85,29.65-26.23,60.81-55.67,71.25c-15.53,5.51-32.82,4.33-48.59-0.42c-15.77-4.75-30.29-12.87-44.47-21.26
	c-6.23-3.68-12.56-7.55-17.08-13.2c-11.58-14.47-8.04-35.51-13.12-53.34c-4.54,4.28-7.16,10.15-9.67,15.86
	c-8.94,20.33-17.73,44.6-6.32,63.65c4.69,7.83,12.2,13.48,19,19.57c9.73,8.71,18.31,18.7,25.45,29.63
	c5.76,8.81,10.75,19.41,7.97,29.57c-2.5,9.12-10.9,15.65-19.9,18.57c-8.99,2.92-18.64,2.85-28.1,2.92
	c-26.86,0.18-54.72,1.92-78.42,14.55c-1.65,0.88-3.38,1.92-4.16,3.62c-0.8,1.73-0.42,3.78,0.23,5.57
	c2.95,8.16,11.05,13.55,19.45,15.7c8.4,2.15,17.22,1.61,25.89,1.28c24.3-0.9,48.7,0.07,72.77,3.54c18.34,2.65,38.56,8.19,47.89,24.2
	c5.77,9.89,5.77,21.27,4.67,32.32c-0.81,8.18-7.87,27.39-4.09,34.83C641.09,462.28,681.53,406.51,686.63,397.53z"/>
<rect x="245.93" y="133.77" class="st7" width="0" height="8.22"/>
</svg>
